<mxfile host="app.diagrams.net" modified="2022-02-07T04:15:43.224Z" agent="5.0 (Macintosh; Intel Mac OS X 10_15_7) AppleWebKit/605.1.15 (KHTML, like Gecko) Version/15.2 Safari/605.1.15" etag="j8jFQUEXEkqwyuKu7l54" version="16.4.3" type="github">
  <diagram id="MgMawF2ewCmIdZ4En5Lc" name="Page-1">
    <mxGraphModel dx="9797" dy="7893" grid="1" gridSize="10" guides="1" tooltips="1" connect="1" arrows="1" fold="1" page="1" pageScale="1" pageWidth="850" pageHeight="1100" math="0" shadow="0">
      <root>
        <mxCell id="0" />
        <mxCell id="1" parent="0" />
        <mxCell id="RqYwaNOaAykxxJKkyd5C-46" value="" style="verticalLabelPosition=bottom;verticalAlign=top;html=1;shape=mxgraph.basic.polygon;polyCoords=[[0.25,0],[0.75,0],[1,0.25],[1,0.75],[0.75,1],[0.25,1],[0,0.75],[0,0.25]];polyline=0;fillColor=#fad7ac;strokeColor=#b46504;" parent="1" vertex="1">
          <mxGeometry x="-3810" y="-4170" width="9359.59" height="9359.59" as="geometry" />
        </mxCell>
        <mxCell id="RqYwaNOaAykxxJKkyd5C-42" value="" style="verticalLabelPosition=bottom;verticalAlign=top;html=1;shape=mxgraph.basic.polygon;polyCoords=[[0.25,0],[0.75,0],[1,0.25],[1,0.75],[0.75,1],[0.25,1],[0,0.75],[0,0.25]];polyline=0;fillColor=#FAAB93;strokeColor=#b46504;strokeWidth=13;" parent="1" vertex="1">
          <mxGeometry x="-3085.21" y="-3520.21" width="7849.59" height="7849.59" as="geometry" />
        </mxCell>
        <mxCell id="RqYwaNOaAykxxJKkyd5C-38" value="" style="verticalLabelPosition=bottom;verticalAlign=top;html=1;shape=mxgraph.basic.polygon;polyCoords=[[0.25,0],[0.75,0],[1,0.25],[1,0.75],[0.75,1],[0.25,1],[0,0.75],[0,0.25]];polyline=0;fillColor=#e1d5e7;strokeColor=#9673a6;" parent="1" vertex="1">
          <mxGeometry x="-2680.21" y="-3177.21" width="7086.59" height="7086.59" as="geometry" />
        </mxCell>
        <mxCell id="RqYwaNOaAykxxJKkyd5C-37" value="" style="verticalLabelPosition=bottom;verticalAlign=top;html=1;shape=mxgraph.basic.polygon;polyCoords=[[0.25,0],[0.75,0],[1,0.25],[1,0.75],[0.75,1],[0.25,1],[0,0.75],[0,0.25]];polyline=0;fillColor=#D7B2E7;strokeColor=#9673a6;strokeWidth=20;" parent="1" vertex="1">
          <mxGeometry x="-1645.21" y="-2260.21" width="5236.59" height="5236.59" as="geometry" />
        </mxCell>
        <mxCell id="RqYwaNOaAykxxJKkyd5C-31" value="" style="verticalLabelPosition=bottom;verticalAlign=top;html=1;shape=mxgraph.basic.polygon;polyCoords=[[0.25,0],[0.75,0],[1,0.25],[1,0.75],[0.75,1],[0.25,1],[0,0.75],[0,0.25]];polyline=0;fillColor=#dae8fc;strokeColor=#6c8ebf;" parent="1" vertex="1">
          <mxGeometry x="-1345.21" y="-1988.81" width="4655.19" height="4655.19" as="geometry" />
        </mxCell>
        <mxCell id="RqYwaNOaAykxxJKkyd5C-30" value="" style="verticalLabelPosition=bottom;verticalAlign=top;html=1;shape=mxgraph.basic.polygon;polyCoords=[[0.25,0],[0.75,0],[1,0.25],[1,0.75],[0.75,1],[0.25,1],[0,0.75],[0,0.25]];polyline=0;fillColor=#C7DAFC;strokeColor=#6c8ebf;strokeWidth=21;" parent="1" vertex="1">
          <mxGeometry x="-325.21" y="-856.96" width="2537.5" height="2537.5" as="geometry" />
        </mxCell>
        <mxCell id="RqYwaNOaAykxxJKkyd5C-29" value="" style="verticalLabelPosition=bottom;verticalAlign=top;html=1;shape=mxgraph.basic.polygon;polyCoords=[[0.25,0],[0.75,0],[1,0.25],[1,0.75],[0.75,1],[0.25,1],[0,0.75],[0,0.25]];polyline=0;fillColor=#f5f5f5;fontColor=#333333;strokeColor=#666666;" parent="1" vertex="1">
          <mxGeometry x="-122.70999999999998" y="-667.71" width="2125" height="2125" as="geometry" />
        </mxCell>
        <mxCell id="RqYwaNOaAykxxJKkyd5C-23" value="" style="verticalLabelPosition=bottom;verticalAlign=top;html=1;shape=mxgraph.basic.polygon;polyCoords=[[0.25,0],[0.75,0],[1,0.25],[1,0.75],[0.75,1],[0.25,1],[0,0.75],[0,0.25]];polyline=0;fillColor=#f5f5f5;fontColor=#333333;strokeColor=#666666;strokeWidth=13;" parent="1" vertex="1">
          <mxGeometry x="764.79" y="219.79" width="350" height="350" as="geometry" />
        </mxCell>
        <mxCell id="RqYwaNOaAykxxJKkyd5C-24" value="&lt;font face=&quot;Verdana&quot;&gt;&lt;span style=&quot;font-size: 19px&quot;&gt;Water&lt;/span&gt;&lt;/font&gt;" style="ellipse;whiteSpace=wrap;html=1;aspect=fixed;fillColor=#dae8fc;strokeColor=#6c8ebf;" parent="1" vertex="1">
          <mxGeometry x="829.79" y="249.79" width="80" height="80" as="geometry" />
        </mxCell>
        <mxCell id="RqYwaNOaAykxxJKkyd5C-25" value="&lt;font face=&quot;Verdana&quot;&gt;&lt;span style=&quot;font-size: 19px&quot;&gt;Rock&lt;/span&gt;&lt;/font&gt;" style="ellipse;whiteSpace=wrap;html=1;aspect=fixed;fillColor=#f5f5f5;strokeColor=#666666;fontColor=#333333;" parent="1" vertex="1">
          <mxGeometry x="789.79" y="389.79" width="80" height="80" as="geometry" />
        </mxCell>
        <mxCell id="RqYwaNOaAykxxJKkyd5C-26" value="&lt;font face=&quot;Verdana&quot;&gt;&lt;span style=&quot;font-size: 19px&quot;&gt;Dirt&lt;/span&gt;&lt;/font&gt;" style="ellipse;whiteSpace=wrap;html=1;aspect=fixed;fillColor=#a0522d;strokeColor=#6D1F00;fontColor=#ffffff;" parent="1" vertex="1">
          <mxGeometry x="899.79" y="469.79" width="80" height="80" as="geometry" />
        </mxCell>
        <mxCell id="RqYwaNOaAykxxJKkyd5C-27" value="&lt;font face=&quot;Verdana&quot;&gt;&lt;span style=&quot;font-size: 19px&quot;&gt;Sand&lt;/span&gt;&lt;/font&gt;" style="ellipse;whiteSpace=wrap;html=1;aspect=fixed;fillColor=#e3c800;strokeColor=#B09500;fontColor=#000000;" parent="1" vertex="1">
          <mxGeometry x="1004.79" y="389.79" width="80" height="80" as="geometry" />
        </mxCell>
        <mxCell id="RqYwaNOaAykxxJKkyd5C-28" value="&lt;font face=&quot;Verdana&quot;&gt;&lt;span style=&quot;font-size: 19px&quot;&gt;Wood&lt;/span&gt;&lt;/font&gt;" style="ellipse;whiteSpace=wrap;html=1;aspect=fixed;fillColor=#6d8764;strokeColor=#3A5431;fontColor=#ffffff;" parent="1" vertex="1">
          <mxGeometry x="964.79" y="249.79" width="80" height="80" as="geometry" />
        </mxCell>
        <mxCell id="RqYwaNOaAykxxJKkyd5C-32" value="&lt;font face=&quot;Verdana&quot; style=&quot;font-size: 24px&quot;&gt;Iron&lt;/font&gt;" style="ellipse;whiteSpace=wrap;html=1;aspect=fixed;fillColor=#647687;strokeColor=#314354;fontColor=#ffffff;" parent="1" vertex="1">
          <mxGeometry x="34.79000000000002" y="-560.21" width="110" height="110" as="geometry" />
        </mxCell>
        <mxCell id="RqYwaNOaAykxxJKkyd5C-33" value="&lt;font face=&quot;Verdana&quot; style=&quot;font-size: 24px&quot;&gt;Coal&lt;/font&gt;" style="ellipse;whiteSpace=wrap;html=1;aspect=fixed;fillColor=#51606E;strokeColor=#314354;fontColor=#ffffff;" parent="1" vertex="1">
          <mxGeometry x="1744.79" y="-530.21" width="110" height="110" as="geometry" />
        </mxCell>
        <mxCell id="RqYwaNOaAykxxJKkyd5C-34" value="&lt;font face=&quot;Verdana&quot; style=&quot;font-size: 24px&quot;&gt;Mineral&lt;/font&gt;" style="ellipse;whiteSpace=wrap;html=1;aspect=fixed;fillColor=#f0a30a;strokeColor=#BD7000;fontColor=#000000;" parent="1" vertex="1">
          <mxGeometry x="1810" y="1160" width="110" height="110" as="geometry" />
        </mxCell>
        <mxCell id="RqYwaNOaAykxxJKkyd5C-35" value="&lt;font face=&quot;Verdana&quot; style=&quot;font-size: 24px&quot;&gt;Rubber&lt;/font&gt;" style="ellipse;whiteSpace=wrap;html=1;aspect=fixed;fillColor=#647687;strokeColor=#314354;fontColor=#ffffff;" parent="1" vertex="1">
          <mxGeometry x="888.54" y="1519.79" width="110" height="110" as="geometry" />
        </mxCell>
        <mxCell id="RqYwaNOaAykxxJKkyd5C-36" value="&lt;font face=&quot;Verdana&quot; style=&quot;font-size: 24px&quot;&gt;Copper&lt;/font&gt;" style="ellipse;whiteSpace=wrap;html=1;aspect=fixed;fillColor=#e51400;strokeColor=#B20000;fontColor=#ffffff;" parent="1" vertex="1">
          <mxGeometry x="-10" y="1180" width="110" height="110" as="geometry" />
        </mxCell>
        <mxCell id="RqYwaNOaAykxxJKkyd5C-39" value="&lt;font face=&quot;Verdana&quot; style=&quot;font-size: 42px&quot;&gt;Gold&lt;/font&gt;" style="ellipse;whiteSpace=wrap;html=1;aspect=fixed;fillColor=#e3c800;strokeColor=#B09500;fontColor=#000000;" parent="1" vertex="1">
          <mxGeometry x="-2985.21" y="-1570.21" width="210" height="210" as="geometry" />
        </mxCell>
        <mxCell id="RqYwaNOaAykxxJKkyd5C-40" value="&lt;font face=&quot;Verdana&quot; style=&quot;font-size: 42px&quot;&gt;Platinum&lt;/font&gt;" style="ellipse;whiteSpace=wrap;html=1;aspect=fixed;fillColor=#E1E3AA;strokeColor=#B09500;fontColor=#000000;" parent="1" vertex="1">
          <mxGeometry x="4464.79" y="-1580.21" width="210" height="210" as="geometry" />
        </mxCell>
        <mxCell id="RqYwaNOaAykxxJKkyd5C-41" value="&lt;font face=&quot;Verdana&quot; style=&quot;font-size: 42px&quot;&gt;Diamond&lt;/font&gt;" style="ellipse;whiteSpace=wrap;html=1;aspect=fixed;fillColor=#1ba1e2;strokeColor=#006EAF;fontColor=#ffffff;" parent="1" vertex="1">
          <mxGeometry x="854.79" y="4039.79" width="210" height="210" as="geometry" />
        </mxCell>
        <mxCell id="RqYwaNOaAykxxJKkyd5C-43" value="&lt;font face=&quot;Verdana&quot; style=&quot;font-size: 42px&quot;&gt;Silver&lt;/font&gt;" style="ellipse;whiteSpace=wrap;html=1;aspect=fixed;fillColor=#bac8d3;strokeColor=#23445d;" parent="1" vertex="1">
          <mxGeometry x="-1595.21" y="-960.21" width="210" height="210" as="geometry" />
        </mxCell>
        <mxCell id="RqYwaNOaAykxxJKkyd5C-44" value="&lt;font face=&quot;Verdana&quot;&gt;&lt;span style=&quot;font-size: 42px&quot;&gt;Fuel&lt;/span&gt;&lt;/font&gt;" style="ellipse;whiteSpace=wrap;html=1;aspect=fixed;fillColor=#d0cee2;strokeColor=#56517e;" parent="1" vertex="1">
          <mxGeometry x="3354.79" y="-990.21" width="210" height="210" as="geometry" />
        </mxCell>
        <mxCell id="RqYwaNOaAykxxJKkyd5C-45" value="&lt;font face=&quot;Verdana&quot;&gt;&lt;span style=&quot;font-size: 42px&quot;&gt;Gem&lt;/span&gt;&lt;/font&gt;" style="ellipse;whiteSpace=wrap;html=1;aspect=fixed;fillColor=#fad9d5;strokeColor=#ae4132;" parent="1" vertex="1">
          <mxGeometry x="888.54" y="2729.79" width="210" height="210" as="geometry" />
        </mxCell>
        <mxCell id="RqYwaNOaAykxxJKkyd5C-48" value="&lt;font style=&quot;font-size: 390px&quot;&gt;Material&lt;/font&gt;" style="rounded=0;whiteSpace=wrap;html=1;fontFamily=Verdana;fontSize=42;strokeWidth=13;" parent="1" vertex="1">
          <mxGeometry x="-206.07" y="-5200" width="2376.92" height="640" as="geometry" />
        </mxCell>
        <mxCell id="RqYwaNOaAykxxJKkyd5C-49" value="&lt;font style=&quot;font-size: 390px&quot;&gt;Event&amp;amp;Quest&lt;/font&gt;" style="rounded=0;whiteSpace=wrap;html=1;fontFamily=Verdana;fontSize=42;strokeWidth=13;rotation=90;" parent="1" vertex="1">
          <mxGeometry x="5010" y="84.59" width="2760" height="640" as="geometry" />
        </mxCell>
        <mxCell id="RqYwaNOaAykxxJKkyd5C-50" value="&lt;font style=&quot;font-size: 390px&quot;&gt;Decorate&lt;/font&gt;" style="rounded=0;whiteSpace=wrap;html=1;fontFamily=Verdana;fontSize=42;strokeWidth=13;rotation=-90;" parent="1" vertex="1">
          <mxGeometry x="-5920" y="74.78999999999996" width="2760" height="640" as="geometry" />
        </mxCell>
        <mxCell id="RqYwaNOaAykxxJKkyd5C-51" value="&lt;font style=&quot;font-size: 390px&quot;&gt;Machine&lt;/font&gt;" style="rounded=0;whiteSpace=wrap;html=1;fontFamily=Verdana;fontSize=42;strokeWidth=13;rotation=0;" parent="1" vertex="1">
          <mxGeometry x="-470" y="5650" width="2760" height="640" as="geometry" />
        </mxCell>
        <mxCell id="RqYwaNOaAykxxJKkyd5C-52" value="&lt;font style=&quot;font-size: 390px&quot;&gt;Factory&lt;/font&gt;" style="rounded=0;whiteSpace=wrap;html=1;fontFamily=Verdana;fontSize=42;strokeWidth=13;rotation=45;" parent="1" vertex="1">
          <mxGeometry x="-4760" y="4260" width="2760" height="640" as="geometry" />
        </mxCell>
        <mxCell id="RqYwaNOaAykxxJKkyd5C-53" value="&lt;font style=&quot;font-size: 390px&quot;&gt;Utillity&lt;/font&gt;" style="rounded=0;whiteSpace=wrap;html=1;fontFamily=Verdana;fontSize=42;strokeWidth=13;rotation=-45;" parent="1" vertex="1">
          <mxGeometry x="3630" y="4350" width="2760" height="640" as="geometry" />
        </mxCell>
        <mxCell id="RqYwaNOaAykxxJKkyd5C-54" value="&lt;font style=&quot;font-size: 390px&quot;&gt;???????&lt;/font&gt;" style="rounded=0;whiteSpace=wrap;html=1;fontFamily=Verdana;fontSize=42;strokeWidth=13;rotation=45;" parent="1" vertex="1">
          <mxGeometry x="3680" y="-4020" width="2760" height="640" as="geometry" />
        </mxCell>
        <mxCell id="RqYwaNOaAykxxJKkyd5C-55" value="&lt;font style=&quot;font-size: 390px&quot;&gt;????????&lt;/font&gt;" style="rounded=0;whiteSpace=wrap;html=1;fontFamily=Verdana;fontSize=42;strokeWidth=13;rotation=-45;" parent="1" vertex="1">
          <mxGeometry x="-4710" y="-3850" width="2760" height="640" as="geometry" />
        </mxCell>
        <mxCell id="Lr0pwK-OHtp8JPZVebP--1" value="&lt;font face=&quot;Verdana&quot; style=&quot;font-size: 24px&quot;&gt;Cotton&lt;br&gt;&lt;/font&gt;" style="ellipse;whiteSpace=wrap;html=1;aspect=fixed;fillColor=#1ba1e2;strokeColor=#006EAF;fontColor=#ffffff;" vertex="1" parent="1">
          <mxGeometry x="927.3900000000001" y="-819" width="110" height="110" as="geometry" />
        </mxCell>
        <mxCell id="Lr0pwK-OHtp8JPZVebP--2" value="&lt;font face=&quot;Verdana&quot; style=&quot;font-size: 24px&quot;&gt;Electric&lt;br&gt;&lt;/font&gt;" style="ellipse;whiteSpace=wrap;html=1;aspect=fixed;fillColor=#e3c800;strokeColor=#B09500;fontColor=#000000;" vertex="1" parent="1">
          <mxGeometry x="-270" y="270" width="110" height="110" as="geometry" />
        </mxCell>
      </root>
    </mxGraphModel>
  </diagram>
</mxfile>
